<svg xmlns="http://www.w3.org/2000/svg" viewBox="0 0 1755 459" role="img" aria-label="VetForge AI logo">
  
  <path d="M 278.0 418.0 L 265.0 418.0 L 265.0 420.0 L 278.0 420.0 Z M 1474.0 405.0 L 1474.0 428.0 L 1490.0 428.0 L 1490.0 425.0 L 1478.0 424.0 L 1479.0 418.0 L 1489.0 418.0 L 1489.0 415.0 L 1480.0 415.0 L 1478.0 409.0 L 1490.0 408.0 L 1490.0 405.0 Z M 1423.0 405.0 L 1422.0 424.0 L 1423.0 428.0 L 1426.0 428.0 L 1427.0 406.0 Z M 1392.0 405.0 L 1392.0 408.0 L 1399.0 410.0 L 1399.0 428.0 L 1402.0 428.0 L 1403.0 409.0 L 1410.0 408.0 L 1410.0 405.0 Z M 1336.0 405.0 L 1327.0 428.0 L 1331.0 428.0 L 1334.0 423.0 L 1340.0 423.0 L 1349.0 428.0 L 1341.0 405.0 Z M 1338.0 412.0 L 1342.0 417.0 L 1341.0 420.0 L 1335.0 419.0 Z M 1298.0 405.0 L 1298.0 428.0 L 1302.0 427.0 L 1303.0 420.0 L 1306.0 420.0 L 1311.0 428.0 L 1315.0 428.0 L 1311.0 421.0 L 1316.0 413.0 L 1315.0 408.0 L 1311.0 405.0 Z M 1301.0 410.0 L 1309.0 408.0 L 1311.0 414.0 L 1303.0 416.0 Z M 1281.0 405.0 L 1267.0 405.0 L 1268.0 428.0 L 1271.0 428.0 L 1271.0 421.0 L 1273.0 419.0 L 1284.0 417.0 L 1285.0 409.0 Z M 1271.0 410.0 L 1278.0 408.0 L 1281.0 410.0 L 1281.0 414.0 L 1273.0 416.0 Z M 1218.0 405.0 L 1226.0 418.0 L 1226.0 428.0 L 1230.0 428.0 L 1230.0 419.0 L 1239.0 405.0 L 1234.0 405.0 L 1229.0 414.0 L 1222.0 405.0 Z M 1190.0 405.0 L 1190.0 428.0 L 1194.0 427.0 L 1195.0 420.0 L 1198.0 420.0 L 1203.0 428.0 L 1208.0 428.0 L 1204.0 422.0 L 1208.0 414.0 L 1207.0 408.0 L 1204.0 405.0 Z M 1194.0 409.0 L 1201.0 408.0 L 1204.0 413.0 L 1201.0 416.0 L 1195.0 416.0 Z M 1163.0 405.0 L 1155.0 428.0 L 1159.0 428.0 L 1162.0 423.0 L 1170.0 423.0 L 1174.0 428.0 L 1177.0 428.0 L 1169.0 405.0 Z M 1165.0 412.0 L 1168.0 413.0 L 1169.0 420.0 L 1163.0 419.0 Z M 1122.0 405.0 L 1122.0 428.0 L 1126.0 428.0 L 1127.0 413.0 L 1137.0 426.0 L 1142.0 428.0 L 1143.0 405.0 L 1139.0 405.0 L 1138.0 419.0 L 1127.0 405.0 Z M 1104.0 405.0 L 1104.0 427.0 L 1108.0 428.0 L 1108.0 405.0 Z M 1073.0 405.0 L 1073.0 428.0 L 1077.0 427.0 L 1079.0 419.0 L 1086.0 428.0 L 1090.0 428.0 L 1086.0 421.0 L 1090.0 415.0 L 1090.0 408.0 L 1086.0 405.0 Z M 1077.0 409.0 L 1084.0 408.0 L 1087.0 413.0 L 1084.0 416.0 L 1078.0 416.0 Z M 1043.0 405.0 L 1043.0 428.0 L 1059.0 428.0 L 1059.0 425.0 L 1049.0 425.0 L 1047.0 423.0 L 1048.0 418.0 L 1058.0 418.0 L 1058.0 415.0 L 1049.0 415.0 L 1047.0 410.0 L 1049.0 408.0 L 1059.0 408.0 L 1059.0 405.0 Z M 1012.0 405.0 L 1012.0 408.0 L 1019.0 409.0 L 1019.0 428.0 L 1023.0 428.0 L 1023.0 410.0 L 1031.0 406.0 Z M 984.0 405.0 L 984.0 427.0 L 1000.0 428.0 L 1000.0 425.0 L 990.0 425.0 L 988.0 423.0 L 989.0 418.0 L 1000.0 417.0 L 999.0 415.0 L 990.0 415.0 L 988.0 410.0 L 990.0 408.0 L 1000.0 408.0 L 1000.0 405.0 Z M 949.0 405.0 L 958.0 428.0 L 964.0 428.0 L 972.0 405.0 L 967.0 406.0 L 961.0 421.0 L 958.0 418.0 L 954.0 405.0 Z M 904.0 405.0 L 903.0 427.0 L 907.0 428.0 L 908.0 421.0 L 912.0 420.0 L 917.0 428.0 L 921.0 428.0 L 917.0 421.0 L 922.0 413.0 L 921.0 408.0 L 917.0 405.0 Z M 908.0 409.0 L 915.0 408.0 L 917.0 414.0 L 909.0 416.0 Z M 856.0 405.0 L 840.0 405.0 L 840.0 428.0 L 844.0 428.0 L 845.0 418.0 L 855.0 417.0 L 855.0 415.0 L 845.0 415.0 L 844.0 409.0 L 856.0 408.0 Z M 795.0 405.0 L 788.0 413.0 L 788.0 420.0 L 796.0 428.0 L 805.0 428.0 L 809.0 425.0 L 809.0 416.0 L 800.0 416.0 L 806.0 422.0 L 803.0 425.0 L 798.0 425.0 L 793.0 421.0 L 792.0 414.0 L 797.0 408.0 L 805.0 410.0 L 808.0 408.0 L 804.0 405.0 Z M 755.0 405.0 L 755.0 428.0 L 759.0 428.0 L 760.0 414.0 L 771.0 428.0 L 775.0 428.0 L 775.0 405.0 L 771.0 405.0 L 770.0 418.0 L 759.0 405.0 Z M 737.0 405.0 L 737.0 428.0 L 740.0 428.0 L 740.0 405.0 Z M 705.0 405.0 L 705.0 408.0 L 712.0 409.0 L 712.0 427.0 L 716.0 428.0 L 716.0 411.0 L 718.0 408.0 L 724.0 408.0 L 724.0 405.0 Z M 677.0 405.0 L 677.0 428.0 L 693.0 428.0 L 693.0 425.0 L 681.0 424.0 L 682.0 418.0 L 693.0 417.0 L 691.0 414.0 L 683.0 415.0 L 681.0 409.0 L 693.0 408.0 L 693.0 405.0 Z M 645.0 405.0 L 645.0 428.0 L 649.0 428.0 L 649.0 421.0 L 651.0 419.0 L 654.0 420.0 L 659.0 428.0 L 664.0 428.0 L 655.0 416.0 L 664.0 405.0 L 658.0 405.0 L 651.0 414.0 L 649.0 413.0 L 649.0 405.0 Z M 613.0 405.0 L 613.0 428.0 L 617.0 428.0 L 618.0 420.0 L 622.0 420.0 L 627.0 428.0 L 631.0 428.0 L 627.0 421.0 L 631.0 415.0 L 630.0 407.0 L 627.0 405.0 Z M 617.0 409.0 L 625.0 408.0 L 627.0 414.0 L 625.0 416.0 L 618.0 416.0 Z M 587.0 405.0 L 578.0 428.0 L 582.0 428.0 L 585.0 423.0 L 594.0 423.0 L 597.0 428.0 L 601.0 428.0 L 593.0 406.0 Z M 589.0 411.0 L 593.0 417.0 L 592.0 420.0 L 586.0 419.0 Z M 541.0 405.0 L 541.0 428.0 L 545.0 428.0 L 546.0 415.0 L 553.0 427.0 L 561.0 415.0 L 562.0 428.0 L 566.0 428.0 L 566.0 405.0 L 560.0 406.0 L 554.0 419.0 L 547.0 405.0 Z M 491.0 405.0 L 490.0 427.0 L 503.0 428.0 L 507.0 426.0 L 512.0 417.0 L 510.0 410.0 L 504.0 405.0 Z M 496.0 408.0 L 501.0 408.0 L 507.0 413.0 L 507.0 420.0 L 501.0 425.0 L 494.0 423.0 L 494.0 410.0 Z M 461.0 405.0 L 461.0 428.0 L 477.0 428.0 L 477.0 425.0 L 465.0 424.0 L 466.0 418.0 L 476.0 418.0 L 476.0 415.0 L 467.0 415.0 L 465.0 409.0 L 477.0 408.0 L 477.0 405.0 Z M 429.0 405.0 L 429.0 427.0 L 433.0 428.0 L 433.0 421.0 L 437.0 419.0 L 443.0 428.0 L 447.0 428.0 L 443.0 421.0 L 447.0 415.0 L 446.0 407.0 L 443.0 405.0 Z M 433.0 409.0 L 440.0 408.0 L 443.0 410.0 L 443.0 414.0 L 441.0 416.0 L 434.0 416.0 Z M 400.0 405.0 L 399.0 427.0 L 415.0 428.0 L 416.0 425.0 L 405.0 425.0 L 403.0 422.0 L 405.0 418.0 L 415.0 417.0 L 414.0 415.0 L 406.0 415.0 L 404.0 409.0 L 415.0 408.0 L 416.0 405.0 Z M 355.0 405.0 L 362.0 428.0 L 366.0 428.0 L 370.0 414.0 L 373.0 416.0 L 376.0 428.0 L 381.0 427.0 L 387.0 405.0 L 382.0 406.0 L 378.0 419.0 L 376.0 418.0 L 373.0 405.0 L 369.0 405.0 L 365.0 419.0 L 362.0 417.0 L 359.0 405.0 Z M 306.0 405.0 L 292.0 405.0 L 292.0 428.0 L 296.0 428.0 L 296.0 421.0 L 298.0 419.0 L 309.0 417.0 L 310.0 409.0 Z M 296.0 410.0 L 303.0 408.0 L 306.0 410.0 L 306.0 414.0 L 298.0 416.0 Z M 248.0 405.0 L 247.0 427.0 L 251.0 428.0 L 252.0 406.0 Z M 221.0 405.0 L 212.0 428.0 L 216.0 428.0 L 220.0 423.0 L 227.0 423.0 L 231.0 428.0 L 234.0 428.0 L 226.0 405.0 Z M 223.0 411.0 L 225.0 412.0 L 226.0 420.0 L 220.0 419.0 Z M 1510.0 404.0 L 1503.0 408.0 L 1503.0 414.0 L 1514.0 419.0 L 1516.0 422.0 L 1513.0 425.0 L 1504.0 422.0 L 1502.0 425.0 L 1506.0 428.0 L 1516.0 428.0 L 1520.0 425.0 L 1520.0 418.0 L 1508.0 413.0 L 1507.0 410.0 L 1509.0 408.0 L 1518.0 410.0 L 1519.0 407.0 Z M 1453.0 404.0 L 1443.0 407.0 L 1439.0 415.0 L 1441.0 423.0 L 1445.0 427.0 L 1452.0 429.0 L 1461.0 424.0 L 1457.0 422.0 L 1454.0 425.0 L 1450.0 425.0 L 1444.0 419.0 L 1444.0 414.0 L 1448.0 409.0 L 1454.0 408.0 L 1457.0 411.0 L 1461.0 409.0 Z M 1369.0 404.0 L 1361.0 409.0 L 1359.0 420.0 L 1363.0 426.0 L 1375.0 428.0 L 1380.0 423.0 L 1368.0 425.0 L 1363.0 419.0 L 1363.0 414.0 L 1369.0 408.0 L 1377.0 411.0 L 1380.0 408.0 Z M 878.0 404.0 L 868.0 410.0 L 867.0 421.0 L 872.0 427.0 L 879.0 429.0 L 888.0 425.0 L 891.0 415.0 L 887.0 407.0 Z M 876.0 408.0 L 881.0 408.0 L 886.0 412.0 L 886.0 420.0 L 881.0 425.0 L 876.0 425.0 L 871.0 419.0 L 871.0 414.0 Z M 332.0 404.0 L 323.0 409.0 L 321.0 419.0 L 324.0 425.0 L 334.0 429.0 L 343.0 424.0 L 345.0 414.0 L 340.0 406.0 Z M 331.0 408.0 L 337.0 409.0 L 341.0 414.0 L 341.0 419.0 L 336.0 425.0 L 330.0 425.0 L 325.0 419.0 L 326.0 412.0 Z M 232.0 263.0 L 223.0 263.0 L 203.0 292.0 L 199.0 304.0 L 197.0 324.0 L 179.0 344.0 L 172.0 357.0 L 173.0 359.0 L 179.0 358.0 L 185.0 347.0 L 203.0 327.0 L 206.0 301.0 L 221.0 274.0 L 226.0 269.0 L 229.0 271.0 L 230.0 283.0 L 242.0 288.0 L 246.0 292.0 L 248.0 301.0 L 256.0 308.0 L 254.0 318.0 L 249.0 323.0 L 239.0 326.0 L 236.0 332.0 L 242.0 359.0 L 247.0 358.0 L 243.0 333.0 L 245.0 330.0 L 257.0 325.0 L 263.0 309.0 L 253.0 298.0 L 249.0 286.0 L 235.0 278.0 Z M 1399.0 212.0 L 1398.0 334.0 L 1482.0 334.0 L 1482.0 312.0 L 1422.0 311.0 L 1423.0 284.0 L 1475.0 283.0 L 1474.0 262.0 L 1423.0 262.0 L 1422.0 236.0 L 1427.0 234.0 L 1482.0 234.0 L 1482.0 213.0 Z M 1129.0 212.0 L 1127.0 214.0 L 1127.0 333.0 L 1151.0 334.0 L 1152.0 236.0 L 1182.0 234.0 L 1191.0 237.0 L 1196.0 242.0 L 1199.0 248.0 L 1199.0 258.0 L 1196.0 264.0 L 1187.0 271.0 L 1168.0 271.0 L 1165.0 276.0 L 1166.0 283.0 L 1214.0 358.0 L 1224.0 358.0 L 1238.0 354.0 L 1232.0 341.0 L 1199.0 291.0 L 1215.0 279.0 L 1223.0 262.0 L 1224.0 249.0 L 1222.0 240.0 L 1213.0 224.0 L 1201.0 216.0 L 1186.0 212.0 Z M 948.0 212.0 L 866.0 213.0 L 866.0 334.0 L 890.0 333.0 L 890.0 288.0 L 892.0 286.0 L 937.0 286.0 L 937.0 265.0 L 892.0 265.0 L 890.0 263.0 L 890.0 236.0 L 901.0 234.0 L 949.0 234.0 Z M 1301.0 211.0 L 1288.0 215.0 L 1274.0 223.0 L 1259.0 240.0 L 1251.0 261.0 L 1251.0 287.0 L 1259.0 307.0 L 1279.0 327.0 L 1305.0 336.0 L 1324.0 336.0 L 1337.0 333.0 L 1353.0 325.0 L 1362.0 317.0 L 1362.0 265.0 L 1313.0 266.0 L 1314.0 285.0 L 1339.0 286.0 L 1339.0 306.0 L 1331.0 311.0 L 1319.0 314.0 L 1299.0 311.0 L 1283.0 299.0 L 1275.0 282.0 L 1275.0 265.0 L 1284.0 246.0 L 1298.0 236.0 L 1309.0 233.0 L 1321.0 233.0 L 1331.0 236.0 L 1344.0 244.0 L 1357.0 226.0 L 1343.0 216.0 L 1332.0 212.0 L 1318.0 210.0 Z M 1020.0 211.0 L 999.0 219.0 L 984.0 231.0 L 979.0 238.0 L 970.0 259.0 L 970.0 288.0 L 979.0 309.0 L 998.0 327.0 L 1022.0 336.0 L 1049.0 335.0 L 1071.0 325.0 L 1087.0 308.0 L 1096.0 286.0 L 1096.0 260.0 L 1088.0 240.0 L 1076.0 226.0 L 1065.0 218.0 L 1046.0 211.0 Z M 1026.0 233.0 L 1043.0 234.0 L 1057.0 241.0 L 1067.0 252.0 L 1073.0 270.0 L 1071.0 286.0 L 1065.0 298.0 L 1054.0 308.0 L 1037.0 314.0 L 1023.0 313.0 L 1010.0 307.0 L 998.0 294.0 L 993.0 280.0 L 993.0 266.0 L 1000.0 250.0 L 1013.0 238.0 Z M 30.0 177.0 L 32.0 189.0 L 48.0 207.0 L 70.0 220.0 L 125.0 239.0 L 136.0 248.0 L 142.0 257.0 L 146.0 268.0 L 144.0 296.0 L 138.0 308.0 L 127.0 319.0 L 107.0 332.0 L 104.0 342.0 L 104.0 355.0 L 108.0 359.0 L 135.0 359.0 L 137.0 357.0 L 140.0 341.0 L 145.0 330.0 L 191.0 267.0 L 200.0 233.0 L 209.0 218.0 L 220.0 207.0 L 224.0 194.0 L 232.0 183.0 L 236.0 185.0 L 239.0 200.0 L 245.0 186.0 L 249.0 184.0 L 254.0 203.0 L 274.0 209.0 L 285.0 225.0 L 308.0 237.0 L 302.0 253.0 L 296.0 259.0 L 288.0 261.0 L 269.0 260.0 L 263.0 267.0 L 263.0 283.0 L 275.0 314.0 L 275.0 333.0 L 268.0 357.0 L 270.0 359.0 L 340.0 358.0 L 340.0 343.0 L 319.0 324.0 L 312.0 311.0 L 310.0 294.0 L 316.0 272.0 L 325.0 257.0 L 337.0 244.0 L 357.0 230.0 L 401.0 208.0 L 408.0 201.0 L 412.0 191.0 L 412.0 181.0 L 406.0 174.0 L 318.0 174.0 L 314.0 164.0 L 309.0 162.0 L 148.0 162.0 L 143.0 165.0 L 142.0 181.0 L 139.0 184.0 L 134.0 183.0 L 128.0 174.0 L 33.0 174.0 Z" fill="#FFFFFF" fill-rule="evenodd"></path>
  <path d="M 1609.0 296.0 L 1602.0 300.0 L 1600.0 310.0 L 1604.0 317.0 L 1612.0 319.0 L 1621.0 314.0 L 1622.0 304.0 L 1618.0 298.0 Z M 630.0 269.0 L 622.0 284.0 L 622.0 333.0 L 707.0 333.0 L 707.0 313.0 L 645.0 312.0 L 644.0 285.0 L 646.0 283.0 L 699.0 283.0 L 699.0 263.0 L 643.0 263.0 Z M 1703.0 213.0 L 1703.0 333.0 L 1724.0 334.0 L 1725.0 213.0 Z M 1601.0 213.0 L 1551.0 333.0 L 1574.0 334.0 L 1610.0 246.0 L 1614.0 250.0 L 1647.0 332.0 L 1656.0 334.0 L 1671.0 333.0 L 1621.0 213.0 Z M 738.0 213.0 L 738.0 233.0 L 767.0 233.0 L 774.0 235.0 L 774.0 333.0 L 795.0 334.0 L 796.0 236.0 L 798.0 234.0 L 814.0 233.0 L 833.0 234.0 L 833.0 213.0 Z M 622.0 214.0 L 622.0 233.0 L 706.0 234.0 L 706.0 213.0 Z M 471.0 213.0 L 522.0 332.0 L 537.0 334.0 L 589.0 213.0 L 565.0 213.0 L 531.0 294.0 L 526.0 288.0 L 496.0 214.0 Z M 276.0 118.0 L 270.0 124.0 L 270.0 132.0 L 276.0 138.0 L 286.0 137.0 L 290.0 131.0 L 289.0 123.0 L 283.0 118.0 Z M 192.0 118.0 L 186.0 123.0 L 186.0 133.0 L 192.0 138.0 L 199.0 138.0 L 205.0 133.0 L 206.0 125.0 L 200.0 118.0 Z M 277.0 88.0 L 270.0 94.0 L 270.0 102.0 L 276.0 108.0 L 284.0 108.0 L 289.0 104.0 L 290.0 95.0 L 285.0 89.0 Z M 192.0 88.0 L 186.0 93.0 L 185.0 99.0 L 189.0 106.0 L 198.0 108.0 L 204.0 104.0 L 206.0 95.0 L 203.0 90.0 Z M 277.0 60.0 L 270.0 66.0 L 270.0 74.0 L 275.0 79.0 L 282.0 80.0 L 289.0 75.0 L 290.0 67.0 L 287.0 62.0 Z M 233.0 60.0 L 229.0 62.0 L 226.0 68.0 L 226.0 130.0 L 231.0 137.0 L 241.0 138.0 L 248.0 130.0 L 248.0 67.0 L 242.0 60.0 Z M 276.0 31.0 L 270.0 37.0 L 270.0 45.0 L 275.0 50.0 L 284.0 50.0 L 289.0 46.0 L 290.0 38.0 L 285.0 32.0 Z" fill="#F97316" fill-rule="evenodd"></path>
</svg>